HIERARCHY
ROOT pelvis
{
  OFFSET 0 100 0
  CHANNELS 6 Xposition Yposition Zposition Zrotation Xrotation Yrotation
  JOINT pelvis_right_femur
  {
    OFFSET -10.78128 -3.44521 -0.5502486
    CHANNELS 3 Zrotation Xrotation Yrotation
    JOINT right_femur_tibia
    {
      OFFSET -0.8047443 -44.0398 -0.1307829
      CHANNELS 3 Zrotation Xrotation Yrotation
      JOINT right_tibia_foot
      {
        OFFSET 3.006224 -47.83518 -5
        CHANNELS 3 Zrotation Xrotation Yrotation
        End Site
        {
          OFFSET 0 -5 15
        }
      }
    }
  }
  JOINT pelvis_left_femur
  {
    OFFSET 10.78128 -3.44521 -0.5502486
    CHANNELS 3 Zrotation Xrotation Yrotation
    JOINT left_femur_tibia
    {
      OFFSET 0.8047443 -44.0398 -0.1307829
      CHANNELS 3 Zrotation Xrotation Yrotation
      JOINT left_tibia_foot
      {
        OFFSET -4.370144 -48.10324 -4.275266
        CHANNELS 3 Zrotation Xrotation Yrotation
        End Site
        {
          OFFSET 0 -5 15
        }
      }
    }
  }
  JOINT pelvis_spine1
  {
    OFFSET 0 6.468898 -3.129235
    CHANNELS 3 Zrotation Xrotation Yrotation
    JOINT spine1
    {
      OFFSET 0 23.15396 4.99043
      CHANNELS 3 Zrotation Xrotation Yrotation
      JOINT spine2
      {
        OFFSET 0 20.79997 -5.064912
        CHANNELS 3 Zrotation Xrotation Yrotation
        JOINT neck
        {
          OFFSET 0 14.38658 9.616178
          CHANNELS 3 Zrotation Xrotation Yrotation
          End Site
          {
            OFFSET 0 20 0
          }
        }
      }
      JOINT right_manubrium
      {
        OFFSET -5.722621 16.35077 3.967754
        CHANNELS 3 Zrotation Xrotation Yrotation
        JOINT right_clavicle
        {
          OFFSET -13.16364 1.694482 -4.693211
          CHANNELS 3 Zrotation Xrotation Yrotation
          JOINT right_humerus
          {
            OFFSET -28.5034 -0.3100689 -2.792744
            CHANNELS 3 Zrotation Xrotation Yrotation
            JOINT right_radius
            {
              OFFSET -25.15693 0.02248979 -1.271978
              CHANNELS 3 Zrotation Xrotation Yrotation
              End Site
              {
                OFFSET -15 0 0
              }
            }
          }
        }
      }
      JOINT left_manubrium
      {
        OFFSET 5.722621 16.35077 3.967754
        CHANNELS 3 Zrotation Xrotation Yrotation
        JOINT left_clavicle
        {
          OFFSET 13.16364 1.694482 -4.693211
          CHANNELS 3 Zrotation Xrotation Yrotation
          JOINT left_humerus
          {
            OFFSET 29.39168 -1.063119 -2.237045
            CHANNELS 3 Zrotation Xrotation Yrotation
            JOINT left_radius
            {
              OFFSET 24.59957 -0.9528479 0.9047498
              CHANNELS 3 Zrotation Xrotation Yrotation
              End Site
              {
                OFFSET 15 -0 -0
              }
            }
          }
        }
      }
    }
  }
}
MOTION
Frames: 15
Frame Time: 0.0416666666667
0 103.5113 0 -0.4952023 -0.6451055 -0.3703981 4.133012 -9.300532 10.61524 -0 35.16153 -0 -5.942004 -15.39038 -2.57489 -5.232711 7.188401 -23.82342 -0 11.54336 -0 8.079966 -20.4709 23.50989 -0.8730835 -4.997699 4.979551 -0.03774381 8.079095 -4.918592 1.88105 23.26531 6.665903 4.891754 -21.95925 7.386689 8.52998 -14.17915 13.69977 81.24012 29.96535 -17.76258 -0 0 19.4645 -8.124466 11.31883 1.584253 7.408754 -21.00201 -6.100258 -100.3563 30.45001 24.95346 0 0 -10.40963 -3.715977 17.82488 6.658755
0.2401467 103.4459 1.368824 -0.5329255 -0.6821415 -0.7823624 5.062244 -13.56635 10.64309 -0 39.56679 -0 -5.965371 -15.03599 -3.660427 -5.348188 8.420363 -23.70591 -0 10.88248 -0 7.848726 -20.91776 23.77253 -1.141373 -3.898679 4.611204 -0.0485876 7.859325 -5.116379 1.716498 22.63059 7.092687 5.300117 -22.44169 7.365279 8.415185 -14.32256 13.55284 81.20663 30.05398 -17.66883 -0 0 19.27082 -8.405258 11.40245 1.921521 7.588872 -21.13698 -6.102213 -98.8169 30.58591 24.12429 0 0 -10.90004 -3.118702 17.37461 6.681368
0.4201195 103.5434 2.938061 -0.5825796 -0.7296773 -1.319194 6.081581 -17.79997 10.21533 -0 41.81006 -0 -5.981447 -14.27474 -4.408362 -5.486851 9.746063 -23.49326 -0 10.27031 -0 7.476226 -21.35791 23.9491 -1.546772 -2.643395 4.413008 -0.007542165 7.674417 -5.26994 1.547928 21.87087 7.475217 5.717592 -22.84546 7.237763 8.38037 -14.46101 13.46771 81.27773 30.17342 -17.65207 -0 0 18.9152 -8.656805 11.49405 2.230284 7.625855 -21.26331 -6.084486 -97.55121 30.61849 23.13674 0 0 -11.61598 -2.521433 16.9051 6.675252
0.5242879 103.3969 4.774099 -0.624926 -0.7669257 -1.755834 6.813753 -21.98451 9.718342 -0 40.6558 -0 -5.85256 -13.183 -4.636429 -5.573534 11.15329 -23.18506 -0 9.804972 -0 7.06765 -21.97669 23.95398 -1.825363 -1.214098 4.317817 0.1780597 7.596142 -5.416645 1.584148 21.2233 7.84196 6.114571 -23.53275 7.479426 8.064516 -14.42308 13.2913 81.53417 30.31945 -17.8644 -0 0 18.32967 -8.870208 11.60409 2.488862 7.567223 -21.43287 -6.117231 -96.56655 30.55386 21.94149 0 0 -12.70232 -1.955303 16.42663 6.594688
0.6733253 103.0519 6.718106 -0.6581055 -0.7929053 -2.078655 7.138165 -25.76809 9.260926 -0 36.44481 -0 -5.586426 -11.91631 -4.312707 -5.636005 12.52297 -22.83082 -0 9.476311 -0 6.589779 -22.70728 23.63056 -2.133776 0.2210568 4.206153 0.4852257 7.425213 -5.654869 1.424194 20.58465 8.204112 6.38503 -23.89442 7.497571 7.700097 -14.50948 13.19794 81.73644 30.48749 -17.96414 -0 0 17.73702 -9.118927 11.72312 2.776699 7.851023 -21.81618 -6.260544 -95.37313 30.61604 20.43831 0 0 -14.13446 -1.202634 16.18215 6.484345
0.8299393 102.5482 9.387373 -0.6728847 -0.7989489 -2.188797 7.425013 -28.84662 8.51998 -0 31.04179 -0 -5.386503 -10.43366 -3.88739 -5.760191 14.26688 -22.28658 -0 9.376243 -0 6.017489 -23.47627 22.95918 -2.375298 1.507572 4.010711 0.8535083 7.183622 -6.021338 1.36799 20.11049 8.526704 6.660984 -24.32527 7.643315 7.152148 -14.39083 12.80676 82.11185 30.64131 -18.37124 -0 0 16.98617 -9.41912 11.85394 3.099066 8.108337 -22.03934 -6.271856 -94.39536 30.68596 19.14719 0 0 -15.69009 -0.3591491 16.16102 6.372734
0.9558622 101.8102 12.34698 -0.6419997 -0.7587426 -1.777323 7.357668 -31.37863 7.815071 -0 25.1003 -0 -5.307659 -9.083826 -3.142401 -5.794011 16.04697 -21.58183 -0 9.504052 -0 5.303413 -24.19469 21.87057 -2.505245 2.585581 3.628592 1.251032 6.88984 -6.564604 1.323347 19.86677 8.840277 6.932032 -24.60012 7.805413 6.442054 -14.38671 12.39833 82.41468 30.81011 -18.6883 -0 0 16.27204 -9.819296 11.98543 3.512274 8.511857 -22.46713 -6.366231 -93.22214 30.82344 17.71986 0 0 -17.34743 0.6061345 16.34866 6.261853
1.055484 101.0347 15.69977 -0.5617584 -0.6677862 -0.7955687 6.785509 -33.21404 6.95644 -0 20.49527 -0 -5.504386 -7.833895 -2.479181 -5.677473 17.85461 -20.66753 -0 10.08055 -0 4.339262 -24.63182 20.3878 -2.544874 3.700654 3.1037 1.567595 6.8459 -7.208027 1.4159 19.61628 9.057555 7.285081 -24.92371 7.946781 5.912749 -14.30057 12.0592 83.01349 31.02961 -19.15512 -0 0 15.33607 -10.1686 12.15922 3.950803 8.465964 -22.72819 -6.52201 -92.38316 30.80954 16.67293 0 0 -18.65897 1.376078 16.41347 6.177355
1.138822 100.2775 19.67923 -0.4905465 -0.5860182 0.08395636 6.197185 -33.75078 5.865337 -0 18.26256 -0 -5.939684 -7.083028 -2.364531 -5.645255 19.39185 -19.69532 -0 11.81206 -0 3.020265 -24.43428 18.65971 -2.450797 4.440295 2.572461 1.794172 6.927917 -7.857039 1.567547 19.31652 9.127929 7.575865 -25.15471 7.981964 5.547202 -14.18431 11.7942 83.77367 31.2903 -19.68727 -0 0 14.25421 -10.50797 12.36812 4.433584 8.083465 -22.6747 -6.62344 -91.86311 30.63065 16.20806 0 0 -19.52663 1.968349 16.35235 6.146583
1.146315 99.69973 24.35362 -0.4150752 -0.4991067 1.017271 5.552796 -32.40836 4.682208 -0 18.87056 -0 -6.591007 -6.583106 -2.655683 -5.802713 20.36793 -18.63226 -0 15.10983 -0 1.269014 -23.07091 16.81798 -2.135111 4.709735 2.195999 1.97489 7.100123 -8.413379 1.505868 19.07301 9.185854 7.642098 -25.18897 7.876335 5.301876 -13.93576 11.51822 84.68945 31.60345 -20.40338 -0 0 12.89709 -10.8282 12.62534 4.936358 7.643812 -22.46725 -6.49536 -91.51193 30.31396 16.18527 0 0 -20.09609 2.515709 16.26852 6.14326
1.192993 99.5485 29.98873 -0.3625626 -0.4375534 1.674434 5.208954 -29.67862 3.721729 -0 20.69358 -0 -7.246283 -6.305927 -2.878094 -6.00957 20.60478 -17.48079 -0 20.27131 -0 -0.9138669 -20.03628 14.77888 -1.569513 4.359517 2.087062 2.102531 7.389723 -8.76386 1.266599 18.66624 9.277374 7.514888 -25.15742 7.719469 5.107171 -13.48444 11.36368 85.77742 31.90693 -21.33971 -0 0 11.41193 -11.16726 12.92551 5.471211 7.016574 -21.76379 -6.214975 -91.736 29.80622 16.93076 0 0 -20.26668 2.940807 16.08938 6.249803
1.215252 99.91124 35.72639 -0.3474795 -0.418584 1.877175 5.185498 -27.19125 3.314003 -0 22.01205 -0 -7.762113 -6.744767 -2.702647 -6.305935 19.73465 -16.14116 -0 27.17341 -0 -3.143108 -15.32338 12.65726 -0.887501 3.759956 2.233078 2.118318 7.753367 -8.748229 0.8266347 18.53292 9.39613 7.207689 -24.84929 7.482633 4.939737 -13.15252 11.31202 86.73089 32.23759 -21.98836 -0 0 10.10754 -11.60814 13.25136 6.140039 6.406744 -20.99681 -5.791575 -92.08057 29.15689 18.00622 0 0 -20.1714 3.282433 15.81634 6.433002
1.235412 100.6624 41.54295 -0.4019856 -0.4777637 1.243402 5.315293 -23.78986 2.93611 -0 22.46045 -0 -8.097918 -8.069211 -2.31348 -6.776788 16.67713 -14.57121 -0 36.1789 -0 -4.723045 -9.935519 10.9328 -0.3050772 2.957418 2.804956 2.032116 8.259493 -8.372684 0.3589144 18.74606 9.455371 6.861473 -24.40474 7.18535 4.982912 -13.18078 11.45095 87.26543 32.66475 -22.09372 -0 0 9.040106 -12.18453 13.6012 6.904843 5.577793 -20.10121 -5.240189 -92.57669 28.34953 19.45438 0 0 -19.76799 3.537943 15.45774 6.689874
1.218237 101.6569 47.39728 -0.4618632 -0.5430491 0.5465309 5.319986 -19.63971 2.484114 -0 21.6745 -0 -8.141788 -9.723551 -1.728025 -6.856066 11.10765 -12.68763 -0 46.0576 -0 -5.327351 -5.659806 10.35638 0.09689179 1.964508 3.785035 1.988625 8.689701 -7.812762 -0.1185835 19.27354 9.352922 6.483776 -23.90262 6.69593 5.199588 -13.40249 11.83559 87.31057 33.19015 -21.66531 -0 0 8.324246 -12.85922 13.98933 7.681707 4.842448 -19.65819 -4.74078 -92.68506 27.67134 20.60218 0 0 -19.41967 3.691055 15.13819 6.935569
1.168659 102.8039 52.96655 -0.4775021 -0.5627312 0.3539619 5.113044 -14.88332 1.867536 -0 19.57195 -0 -7.823274 -11.1862 -1.090547 -5.851426 3.263964 -10.59337 -0 54.81839 -0 -4.660988 -4.793425 11.40667 0.2877004 0.9947416 4.895962 2.068317 9.105646 -7.300183 -0.4091972 19.96076 9.061908 6.176532 -23.40196 6.146225 5.571491 -13.78258 12.20757 86.92101 33.7472 -20.73876 -0 0 7.978821 -13.72556 14.35893 8.522318 4.124783 -19.45456 -4.258109 -92.70684 27.04878 21.60896 0 0 -19.08977 3.683659 14.77064 7.245629
